<svg xmlns="http://www.w3.org/2000/svg" xmlns:xlink="http://www.w3.org/1999/xlink" width="500" zoomAndPan="magnify" viewBox="0 0 375 374.999991" height="500" preserveAspectRatio="xMidYMid meet" version="1.0"><defs><g/><clipPath id="a802239171"><path d="M 5.078125 5.078125 L 369.921875 5.078125 L 369.921875 369.921875 L 5.078125 369.921875 Z M 5.078125 5.078125 " clip-rule="nonzero"/></clipPath><clipPath id="3e2c2ebf88"><path d="M 187.5 5.078125 C 86.753906 5.078125 5.078125 86.753906 5.078125 187.5 C 5.078125 288.246094 86.753906 369.921875 187.5 369.921875 C 288.246094 369.921875 369.921875 288.246094 369.921875 187.5 C 369.921875 86.753906 288.246094 5.078125 187.5 5.078125 " clip-rule="nonzero"/></clipPath><clipPath id="3af9235e88"><path d="M 62.234375 52.675781 L 312.734375 52.675781 L 312.734375 322.675781 L 62.234375 322.675781 Z M 62.234375 52.675781 " clip-rule="nonzero"/></clipPath></defs><g clip-path="url(#a802239171)"><g clip-path="url(#3e2c2ebf88)"><path fill="#222831" d="M 5.078125 5.078125 L 369.921875 5.078125 L 369.921875 369.921875 L 5.078125 369.921875 Z M 5.078125 5.078125 " fill-opacity="1" fill-rule="nonzero"/></g></g><g fill="#000000" fill-opacity="1"><g transform="translate(189.298118, 183.580037)"><g/></g></g><g fill="#000000" fill-opacity="1"><g transform="translate(189.298118, 194.830036)"><g/></g></g><g clip-path="url(#3af9235e88)"><path fill="#7bc74d" d="M 197.113281 313.03125 L 197.113281 62.316406 C 197.113281 56.996094 192.800781 52.675781 187.484375 52.675781 C 182.171875 52.675781 177.855469 56.996094 177.855469 62.316406 L 177.855469 313.03125 C 177.855469 318.355469 182.171875 322.675781 187.484375 322.675781 C 192.800781 322.675781 197.113281 318.355469 197.113281 313.03125 Z M 235.632812 264.816406 L 235.632812 110.53125 C 235.632812 105.210938 231.320312 100.890625 226.003906 100.890625 C 220.6875 100.890625 216.375 105.210938 216.375 110.53125 L 216.375 264.816406 C 216.375 270.140625 220.6875 274.460938 226.003906 274.460938 C 231.320312 274.460938 235.632812 270.140625 235.632812 264.816406 Z M 158.597656 264.816406 L 158.597656 110.53125 C 158.597656 105.210938 154.285156 100.890625 148.96875 100.890625 C 143.652344 100.890625 139.339844 105.210938 139.339844 110.53125 L 139.339844 264.816406 C 139.339844 270.140625 143.652344 274.460938 148.96875 274.460938 C 154.285156 274.460938 158.597656 270.140625 158.597656 264.816406 Z M 274.148438 235.890625 L 274.148438 139.460938 C 274.148438 134.136719 269.835938 129.816406 264.519531 129.816406 C 259.207031 129.816406 254.890625 134.136719 254.890625 139.460938 L 254.890625 235.890625 C 254.890625 241.210938 259.207031 245.53125 264.519531 245.53125 C 269.835938 245.53125 274.148438 241.210938 274.148438 235.890625 Z M 120.078125 235.890625 L 120.078125 139.460938 C 120.078125 134.136719 115.765625 129.816406 110.449219 129.816406 C 105.136719 129.816406 100.820312 134.136719 100.820312 139.460938 L 100.820312 235.890625 C 100.820312 241.210938 105.136719 245.53125 110.449219 245.53125 C 115.765625 245.53125 120.078125 241.210938 120.078125 235.890625 Z M 81.5625 216.605469 L 81.5625 158.746094 C 81.5625 153.421875 77.25 149.105469 71.933594 149.105469 C 66.617188 149.105469 62.304688 153.421875 62.304688 158.746094 L 62.304688 216.605469 C 62.304688 221.925781 66.617188 226.246094 71.933594 226.246094 C 77.25 226.246094 81.5625 221.925781 81.5625 216.605469 Z M 312.667969 216.605469 L 312.667969 158.746094 C 312.667969 153.421875 308.355469 149.105469 303.039062 149.105469 C 297.722656 149.105469 293.410156 153.421875 293.410156 158.746094 L 293.410156 216.605469 C 293.410156 221.925781 297.722656 226.246094 303.039062 226.246094 C 308.355469 226.246094 312.667969 221.925781 312.667969 216.605469 Z M 312.667969 216.605469 " fill-opacity="1" fill-rule="evenodd"/></g></svg>