<?xml version="1.0" encoding="utf-8"?>
<!-- Generator: Adobe Illustrator 26.0.1, SVG Export Plug-In . SVG Version: 6.00 Build 0)  -->
<svg version="1.1" id="Layer_1" xmlns="http://www.w3.org/2000/svg" xmlns:xlink="http://www.w3.org/1999/xlink" x="0px" y="0px"
	 viewBox="0 0 512 512" style="enable-background:new 0 0 512 512;" xml:space="preserve">
<style type="text/css">
	.st0{fill:#FFFFFF;}
	.st1{fill:#4CAF50;}
</style>
<circle class="st0" cx="256" cy="256" r="167"/>
<path class="st1" d="M256,512c141.4,0,256-114.6,256-256S397.4,0,256,0S0,114.6,0,256S114.6,512,256,512z M224,192v128
	c0,17.7-14.3,32-32,32s-32-14.3-32-32V192c0-17.7,14.3-32,32-32S224,174.3,224,192z M352,192v128c0,17.7-14.3,32-32,32
	s-32-14.3-32-32V192c0-17.7,14.3-32,32-32S352,174.3,352,192z"/>
</svg>
